<mxfile host="app.diagrams.net" modified="2024-05-14T09:39:50.421Z" agent="Mozilla/5.0 (Macintosh; Intel Mac OS X 10_15_7) AppleWebKit/605.1.15 (KHTML, like Gecko) Version/17.1.2 Safari/605.1.15" etag="BEhQ-_bVXWhyTfJ2wFbh" version="24.4.0" type="github">
  <diagram name="第 1 页" id="7NttM3MALontoHz9VAkd">
    <mxGraphModel dx="727" dy="972" grid="1" gridSize="10" guides="1" tooltips="1" connect="1" arrows="1" fold="1" page="1" pageScale="1" pageWidth="827" pageHeight="1169" math="0" shadow="0">
      <root>
        <mxCell id="0" />
        <mxCell id="1" parent="0" />
        <mxCell id="AC5lA6Cz0w4kGGg6eQqP-10" style="edgeStyle=orthogonalEdgeStyle;rounded=0;orthogonalLoop=1;jettySize=auto;html=1;exitX=0.5;exitY=1;exitDx=0;exitDy=0;entryX=0.5;entryY=0;entryDx=0;entryDy=0;" edge="1" parent="1" source="AC5lA6Cz0w4kGGg6eQqP-1" target="AC5lA6Cz0w4kGGg6eQqP-2">
          <mxGeometry relative="1" as="geometry" />
        </mxCell>
        <mxCell id="AC5lA6Cz0w4kGGg6eQqP-1" value="开始" style="rounded=1;whiteSpace=wrap;html=1;" vertex="1" parent="1">
          <mxGeometry x="120" y="60" width="120" height="60" as="geometry" />
        </mxCell>
        <mxCell id="AC5lA6Cz0w4kGGg6eQqP-11" style="edgeStyle=orthogonalEdgeStyle;rounded=0;orthogonalLoop=1;jettySize=auto;html=1;exitX=1;exitY=0.5;exitDx=0;exitDy=0;entryX=0;entryY=0.5;entryDx=0;entryDy=0;" edge="1" parent="1" source="AC5lA6Cz0w4kGGg6eQqP-2" target="AC5lA6Cz0w4kGGg6eQqP-3">
          <mxGeometry relative="1" as="geometry" />
        </mxCell>
        <mxCell id="AC5lA6Cz0w4kGGg6eQqP-2" value="实例化CycleGAN模型" style="rounded=0;whiteSpace=wrap;html=1;" vertex="1" parent="1">
          <mxGeometry x="120" y="180" width="120" height="60" as="geometry" />
        </mxCell>
        <mxCell id="AC5lA6Cz0w4kGGg6eQqP-12" style="edgeStyle=orthogonalEdgeStyle;rounded=0;orthogonalLoop=1;jettySize=auto;html=1;exitX=1;exitY=0.5;exitDx=0;exitDy=0;entryX=0;entryY=0.5;entryDx=0;entryDy=0;" edge="1" parent="1" source="AC5lA6Cz0w4kGGg6eQqP-3" target="AC5lA6Cz0w4kGGg6eQqP-4">
          <mxGeometry relative="1" as="geometry" />
        </mxCell>
        <mxCell id="AC5lA6Cz0w4kGGg6eQqP-3" value="定义结构，损失函数和其他参数" style="rounded=0;whiteSpace=wrap;html=1;" vertex="1" parent="1">
          <mxGeometry x="320" y="180" width="120" height="60" as="geometry" />
        </mxCell>
        <mxCell id="AC5lA6Cz0w4kGGg6eQqP-13" style="edgeStyle=orthogonalEdgeStyle;rounded=0;orthogonalLoop=1;jettySize=auto;html=1;exitX=0.5;exitY=1;exitDx=0;exitDy=0;entryX=0.5;entryY=0;entryDx=0;entryDy=0;" edge="1" parent="1" source="AC5lA6Cz0w4kGGg6eQqP-4" target="AC5lA6Cz0w4kGGg6eQqP-5">
          <mxGeometry relative="1" as="geometry" />
        </mxCell>
        <mxCell id="AC5lA6Cz0w4kGGg6eQqP-4" value="定义优化器" style="rounded=0;whiteSpace=wrap;html=1;" vertex="1" parent="1">
          <mxGeometry x="520" y="180" width="120" height="60" as="geometry" />
        </mxCell>
        <mxCell id="AC5lA6Cz0w4kGGg6eQqP-7" style="edgeStyle=orthogonalEdgeStyle;rounded=0;orthogonalLoop=1;jettySize=auto;html=1;exitX=0;exitY=0.5;exitDx=0;exitDy=0;entryX=1;entryY=0.5;entryDx=0;entryDy=0;" edge="1" parent="1" source="AC5lA6Cz0w4kGGg6eQqP-5" target="AC5lA6Cz0w4kGGg6eQqP-6">
          <mxGeometry relative="1" as="geometry" />
        </mxCell>
        <mxCell id="AC5lA6Cz0w4kGGg6eQqP-8" value="否" style="edgeLabel;html=1;align=center;verticalAlign=middle;resizable=0;points=[];" vertex="1" connectable="0" parent="AC5lA6Cz0w4kGGg6eQqP-7">
          <mxGeometry x="-0.1" y="2" relative="1" as="geometry">
            <mxPoint as="offset" />
          </mxGeometry>
        </mxCell>
        <mxCell id="AC5lA6Cz0w4kGGg6eQqP-43" style="edgeStyle=orthogonalEdgeStyle;rounded=0;orthogonalLoop=1;jettySize=auto;html=1;exitX=1;exitY=0.5;exitDx=0;exitDy=0;entryX=1;entryY=0.5;entryDx=0;entryDy=0;" edge="1" parent="1" source="AC5lA6Cz0w4kGGg6eQqP-5" target="AC5lA6Cz0w4kGGg6eQqP-23">
          <mxGeometry relative="1" as="geometry" />
        </mxCell>
        <mxCell id="AC5lA6Cz0w4kGGg6eQqP-44" value="是" style="edgeLabel;html=1;align=center;verticalAlign=middle;resizable=0;points=[];" vertex="1" connectable="0" parent="AC5lA6Cz0w4kGGg6eQqP-43">
          <mxGeometry x="-0.075" y="1" relative="1" as="geometry">
            <mxPoint as="offset" />
          </mxGeometry>
        </mxCell>
        <mxCell id="AC5lA6Cz0w4kGGg6eQqP-5" value="是否初次训练" style="rhombus;whiteSpace=wrap;html=1;" vertex="1" parent="1">
          <mxGeometry x="520" y="300" width="120" height="60" as="geometry" />
        </mxCell>
        <mxCell id="AC5lA6Cz0w4kGGg6eQqP-45" style="edgeStyle=orthogonalEdgeStyle;rounded=0;orthogonalLoop=1;jettySize=auto;html=1;exitX=0.5;exitY=1;exitDx=0;exitDy=0;" edge="1" parent="1" source="AC5lA6Cz0w4kGGg6eQqP-6" target="AC5lA6Cz0w4kGGg6eQqP-23">
          <mxGeometry relative="1" as="geometry" />
        </mxCell>
        <mxCell id="AC5lA6Cz0w4kGGg6eQqP-6" value="加载模型" style="rounded=0;whiteSpace=wrap;html=1;" vertex="1" parent="1">
          <mxGeometry x="320" y="300" width="120" height="60" as="geometry" />
        </mxCell>
        <mxCell id="AC5lA6Cz0w4kGGg6eQqP-22" value="是" style="edgeStyle=orthogonalEdgeStyle;rounded=0;orthogonalLoop=1;jettySize=auto;html=1;exitX=0.5;exitY=1;exitDx=0;exitDy=0;" edge="1" parent="1" source="AC5lA6Cz0w4kGGg6eQqP-16">
          <mxGeometry relative="1" as="geometry">
            <mxPoint x="580" y="660" as="targetPoint" />
          </mxGeometry>
        </mxCell>
        <mxCell id="AC5lA6Cz0w4kGGg6eQqP-49" style="edgeStyle=orthogonalEdgeStyle;rounded=0;orthogonalLoop=1;jettySize=auto;html=1;exitX=1;exitY=0.5;exitDx=0;exitDy=0;entryX=1;entryY=0.5;entryDx=0;entryDy=0;" edge="1" parent="1" source="AC5lA6Cz0w4kGGg6eQqP-16" target="AC5lA6Cz0w4kGGg6eQqP-23">
          <mxGeometry relative="1" as="geometry" />
        </mxCell>
        <mxCell id="AC5lA6Cz0w4kGGg6eQqP-50" value="否" style="edgeLabel;html=1;align=center;verticalAlign=middle;resizable=0;points=[];" vertex="1" connectable="0" parent="AC5lA6Cz0w4kGGg6eQqP-49">
          <mxGeometry x="0.0985" relative="1" as="geometry">
            <mxPoint as="offset" />
          </mxGeometry>
        </mxCell>
        <mxCell id="AC5lA6Cz0w4kGGg6eQqP-16" value="是否训练完毕" style="rhombus;whiteSpace=wrap;html=1;" vertex="1" parent="1">
          <mxGeometry x="520" y="540" width="120" height="60" as="geometry" />
        </mxCell>
        <mxCell id="AC5lA6Cz0w4kGGg6eQqP-32" style="edgeStyle=orthogonalEdgeStyle;rounded=0;orthogonalLoop=1;jettySize=auto;html=1;exitX=0;exitY=0.5;exitDx=0;exitDy=0;entryX=1;entryY=0.5;entryDx=0;entryDy=0;" edge="1" parent="1" source="AC5lA6Cz0w4kGGg6eQqP-23" target="AC5lA6Cz0w4kGGg6eQqP-24">
          <mxGeometry relative="1" as="geometry" />
        </mxCell>
        <mxCell id="AC5lA6Cz0w4kGGg6eQqP-23" value="生成并储存伪造图像" style="rounded=0;whiteSpace=wrap;html=1;" vertex="1" parent="1">
          <mxGeometry x="520" y="420" width="120" height="60" as="geometry" />
        </mxCell>
        <mxCell id="AC5lA6Cz0w4kGGg6eQqP-33" style="edgeStyle=orthogonalEdgeStyle;rounded=0;orthogonalLoop=1;jettySize=auto;html=1;exitX=0;exitY=0.5;exitDx=0;exitDy=0;entryX=1;entryY=0.5;entryDx=0;entryDy=0;" edge="1" parent="1" source="AC5lA6Cz0w4kGGg6eQqP-24" target="AC5lA6Cz0w4kGGg6eQqP-25">
          <mxGeometry relative="1" as="geometry" />
        </mxCell>
        <mxCell id="AC5lA6Cz0w4kGGg6eQqP-24" value="使用伪造和真实图像更新网络权重" style="rounded=0;whiteSpace=wrap;html=1;" vertex="1" parent="1">
          <mxGeometry x="320" y="420" width="120" height="60" as="geometry" />
        </mxCell>
        <mxCell id="AC5lA6Cz0w4kGGg6eQqP-46" style="edgeStyle=orthogonalEdgeStyle;rounded=0;orthogonalLoop=1;jettySize=auto;html=1;exitX=0;exitY=0.5;exitDx=0;exitDy=0;entryX=0;entryY=0.5;entryDx=0;entryDy=0;" edge="1" parent="1" source="AC5lA6Cz0w4kGGg6eQqP-25" target="AC5lA6Cz0w4kGGg6eQqP-27">
          <mxGeometry relative="1" as="geometry" />
        </mxCell>
        <mxCell id="AC5lA6Cz0w4kGGg6eQqP-25" value="计算损失" style="rounded=0;whiteSpace=wrap;html=1;" vertex="1" parent="1">
          <mxGeometry x="120" y="420" width="120" height="60" as="geometry" />
        </mxCell>
        <mxCell id="AC5lA6Cz0w4kGGg6eQqP-35" style="edgeStyle=orthogonalEdgeStyle;rounded=0;orthogonalLoop=1;jettySize=auto;html=1;exitX=1;exitY=0.5;exitDx=0;exitDy=0;" edge="1" parent="1" source="AC5lA6Cz0w4kGGg6eQqP-27" target="AC5lA6Cz0w4kGGg6eQqP-29">
          <mxGeometry relative="1" as="geometry" />
        </mxCell>
        <mxCell id="AC5lA6Cz0w4kGGg6eQqP-36" value="是" style="edgeLabel;html=1;align=center;verticalAlign=middle;resizable=0;points=[];" vertex="1" connectable="0" parent="AC5lA6Cz0w4kGGg6eQqP-35">
          <mxGeometry x="0.1" y="-3" relative="1" as="geometry">
            <mxPoint as="offset" />
          </mxGeometry>
        </mxCell>
        <mxCell id="AC5lA6Cz0w4kGGg6eQqP-51" style="edgeStyle=orthogonalEdgeStyle;rounded=0;orthogonalLoop=1;jettySize=auto;html=1;exitX=0.5;exitY=0;exitDx=0;exitDy=0;entryX=0.5;entryY=0;entryDx=0;entryDy=0;" edge="1" parent="1" source="AC5lA6Cz0w4kGGg6eQqP-27" target="AC5lA6Cz0w4kGGg6eQqP-16">
          <mxGeometry relative="1" as="geometry" />
        </mxCell>
        <mxCell id="AC5lA6Cz0w4kGGg6eQqP-52" value="否" style="edgeLabel;html=1;align=center;verticalAlign=middle;resizable=0;points=[];" vertex="1" connectable="0" parent="AC5lA6Cz0w4kGGg6eQqP-51">
          <mxGeometry x="0.0537" y="-1" relative="1" as="geometry">
            <mxPoint as="offset" />
          </mxGeometry>
        </mxCell>
        <mxCell id="AC5lA6Cz0w4kGGg6eQqP-27" value="是否为特定步数保存检查点" style="rhombus;whiteSpace=wrap;html=1;" vertex="1" parent="1">
          <mxGeometry x="120" y="540" width="120" height="60" as="geometry" />
        </mxCell>
        <mxCell id="AC5lA6Cz0w4kGGg6eQqP-37" style="edgeStyle=orthogonalEdgeStyle;rounded=0;orthogonalLoop=1;jettySize=auto;html=1;exitX=0.5;exitY=1;exitDx=0;exitDy=0;entryX=0.5;entryY=0;entryDx=0;entryDy=0;" edge="1" parent="1" source="AC5lA6Cz0w4kGGg6eQqP-29" target="AC5lA6Cz0w4kGGg6eQqP-30">
          <mxGeometry relative="1" as="geometry" />
        </mxCell>
        <mxCell id="AC5lA6Cz0w4kGGg6eQqP-29" value="保存检查点" style="rounded=0;whiteSpace=wrap;html=1;" vertex="1" parent="1">
          <mxGeometry x="320" y="540" width="120" height="60" as="geometry" />
        </mxCell>
        <mxCell id="AC5lA6Cz0w4kGGg6eQqP-38" style="edgeStyle=orthogonalEdgeStyle;rounded=0;orthogonalLoop=1;jettySize=auto;html=1;exitX=1;exitY=0.5;exitDx=0;exitDy=0;entryX=0;entryY=0.5;entryDx=0;entryDy=0;" edge="1" parent="1" source="AC5lA6Cz0w4kGGg6eQqP-30" target="AC5lA6Cz0w4kGGg6eQqP-16">
          <mxGeometry relative="1" as="geometry" />
        </mxCell>
        <mxCell id="AC5lA6Cz0w4kGGg6eQqP-30" value="写入日志" style="rounded=0;whiteSpace=wrap;html=1;" vertex="1" parent="1">
          <mxGeometry x="320" y="660" width="120" height="60" as="geometry" />
        </mxCell>
        <mxCell id="AC5lA6Cz0w4kGGg6eQqP-53" value="结束" style="rounded=1;whiteSpace=wrap;html=1;" vertex="1" parent="1">
          <mxGeometry x="520" y="660" width="120" height="60" as="geometry" />
        </mxCell>
      </root>
    </mxGraphModel>
  </diagram>
</mxfile>
